<?xml version="1.0" encoding="UTF-8" standalone="no"?>
<svg
   version="1.1"
   id="Layer_1"
   x="0px"
   y="0px"
   width="100%"
   viewBox="0 0 1449 2048"
   enable-background="new 0 0 1449 2048"
   xml:space="preserve"
   sodipodi:docname="logo.svg"
   inkscape:version="1.3.2 (091e20e, 2023-11-25, custom)"
   xmlns:inkscape="http://www.inkscape.org/namespaces/inkscape"
   xmlns:sodipodi="http://sodipodi.sourceforge.net/DTD/sodipodi-0.dtd"
   xmlns="http://www.w3.org/2000/svg"
   xmlns:svg="http://www.w3.org/2000/svg"><defs
   id="defs99" /><sodipodi:namedview
   id="namedview99"
   pagecolor="#505050"
   bordercolor="#eeeeee"
   borderopacity="1"
   inkscape:showpageshadow="0"
   inkscape:pageopacity="0"
   inkscape:pagecheckerboard="0"
   inkscape:deskcolor="#505050"
   inkscape:zoom="0.22627417"
   inkscape:cx="143.63107"
   inkscape:cy="559.0563"
   inkscape:window-width="1920"
   inkscape:window-height="1009"
   inkscape:window-x="-8"
   inkscape:window-y="-8"
   inkscape:window-maximized="1"
   inkscape:current-layer="Layer_1" />







<path
   fill="#B01F25"
   opacity="1.000000"
   stroke="none"
   d=" M207.984497,1289.192017   C208.186127,1289.122803 208.387756,1289.053711 209.339325,1288.959961   C218.087280,1288.956909 226.085266,1288.989868 234.083298,1288.998047   C275.740479,1289.040771 317.397644,1289.077148 359.261475,1289.351074   C360.464050,1288.693359 362.328522,1287.800659 362.328766,1286.907471   C362.335327,1264.950806 362.139343,1242.994141 361.992218,1221.037476   C361.963776,1216.795532 361.988129,1212.553467 361.988129,1207.604492   C371.967560,1217.315186 380.961334,1226.013306 389.892029,1234.775757   C396.109009,1240.875610 402.232758,1247.070435 408.410858,1253.210083   C415.077911,1259.835693 421.758789,1266.447388 428.435455,1273.063354   C434.052704,1278.629517 439.614410,1284.254883 445.380096,1289.662842   C445.966095,1290.212524 447.786560,1289.445923 449.491089,1289.192383   C511.821075,1289.063110 573.694153,1289.025879 635.567261,1289.007324   C642.716858,1289.005249 649.866394,1289.106812 657.192017,1289.457764   C660.228699,1289.834351 663.089355,1289.981445 665.950012,1289.982300   C724.566711,1289.998169 783.183350,1289.985962 841.800049,1290.035400   C844.592468,1290.037842 847.402893,1290.885620 850.171082,1290.731567   C852.503479,1290.601929 854.786621,1289.586792 857.375854,1288.662842   C857.778687,1286.713623 858.001160,1285.065308 858.001221,1283.416992   C858.011963,968.399170 858.002258,653.381409 858.036865,338.363586   C858.037537,332.240997 858.605591,326.119690 858.750854,319.994049   C858.766296,319.340668 857.713623,318.661957 857.110229,317.659485   C855.687378,316.945435 853.917297,315.854767 853.022705,316.348969   C851.540344,317.167816 850.621460,319.006744 849.424072,320.405273   C849.382935,320.394623 849.373718,320.479187 848.996704,320.365784   C839.513977,325.592102 830.395813,330.910980 821.334656,336.325348   C820.811096,336.638275 820.751404,337.727570 820.431274,338.445251   C820.386780,338.434967 820.385010,338.526337 820.014893,338.399994   C813.636658,339.839996 808.772583,343.108795 805.034668,348.038483   C805.017456,347.997681 805.080078,348.060394 804.678772,348.033234   C796.422241,349.505493 791.136353,355.099609 785.354431,359.898804   C785.269714,359.969086 785.331238,360.215485 785.233765,360.298340   C785.142944,360.216980 785.362976,360.322052 784.979004,360.335815   C778.851379,363.015808 772.039612,364.056122 768.857788,370.775085   C768.826782,370.881500 768.605225,370.875214 768.228943,370.890808   C762.549133,373.654877 757.115601,376.185699 751.997070,379.243835   C749.442200,380.770264 747.463379,383.260925 745.138245,385.194702   C745.052490,385.073944 745.257324,385.287933 744.873413,385.201904   C743.685486,385.248688 742.751404,385.161713 742.097534,385.548462   C736.020813,389.143188 729.934265,392.729187 723.997620,396.546570   C722.779541,397.329803 722.174683,399.066803 721.168213,400.263245   C721.049255,400.162292 721.316284,400.323822 721.038574,400.315674   C720.520447,400.572235 720.280151,400.836914 719.834045,401.365814   C704.956543,410.805786 690.294861,419.997681 675.611328,429.154480   C603.626587,474.045135 531.664062,518.971680 459.578613,563.700073   C455.198517,566.417908 453.680389,569.240540 453.703400,574.331726   C453.907349,619.456177 453.809601,664.581848 453.833466,709.707214   C453.834778,712.185852 454.124969,714.664429 454.202393,717.596436   C454.031433,720.212402 453.857208,722.375000 453.857727,724.537598   C453.884979,840.645264 453.930847,956.752930 453.927185,1072.860596   C453.927124,1074.492432 453.324249,1076.124268 452.913696,1078.207886   C451.587646,1077.519409 450.912079,1077.345581 450.486084,1076.921265   C442.887360,1069.351440 435.274048,1061.795288 427.755463,1054.146362   C418.578308,1044.810181 409.595062,1035.281250 400.329559,1026.034546   C388.978088,1014.705933 377.325897,1003.677917 366.024261,992.300903   C363.403778,989.662842 360.719330,987.160645 360.728363,982.340271   C360.937347,870.730103 360.900787,759.119507 360.893036,647.508972   C360.892822,644.682373 360.705078,641.855713 360.629700,638.742798   C360.417938,638.289429 360.181244,638.122437 359.980652,637.946045   C360.016754,637.936584 360.070953,637.987915 360.070953,637.987915   C360.244232,636.367249 360.567352,634.746704 360.568695,633.125916   C360.596130,599.966370 360.645691,566.806641 360.500916,533.647705   C360.485046,530.016541 361.674866,528.004211 364.728729,526.110718   C465.474365,463.647339 566.160156,401.087463 666.861816,338.553131   C752.995544,285.065247 839.137939,231.591232 925.989319,178.049530   C929.130493,176.319717 931.558838,174.651474 933.987244,172.983246   C933.987244,172.983276 934.000000,173.000610 934.374329,173.004669   C939.071411,170.954834 943.394165,168.900970 948.040161,166.693497   C948.040161,168.316574 948.040222,169.474228 948.040161,170.631882   C948.036255,341.716736 948.029297,512.801636 948.071777,683.886475   C948.072205,685.598999 948.726807,687.311401 949.117676,689.410156   C949.281616,690.293762 949.403992,690.790955 949.396484,691.672241   C949.289612,693.701233 949.312683,695.346252 949.225647,697.200806   C949.115540,697.410278 949.259033,697.863953 949.200073,698.318115   C949.253418,701.203613 949.365723,703.635010 949.368896,706.517822   C949.235657,709.300232 949.190491,711.631226 949.190430,713.962280   C949.184082,906.323059 949.186218,1098.683838 949.166931,1291.044556   C949.165710,1303.693726 949.001892,1316.342896 948.741455,1329.071777   C948.507019,1329.260742 948.365234,1329.421265 948.396790,1329.470215   C948.523438,1329.667114 948.703796,1329.829590 948.964661,1330.408203   C949.224915,1332.176514 949.384827,1333.541260 949.346802,1335.215576   C949.048767,1336.004761 948.948669,1336.484131 948.654175,1336.886963   C948.459717,1336.810181 948.068726,1336.662109 947.964783,1336.356812   C945.595642,1336.044067 943.330505,1336.030273 941.065308,1336.030273   C654.289490,1336.029297 367.513611,1336.029297 80.737770,1336.028687   C79.238083,1336.028687 77.731712,1335.927490 76.240044,1336.034790   C72.507607,1336.302734 69.998222,1335.044189 69.790268,1330.955078   C69.478783,1324.830200 69.022614,1318.699951 69.048981,1312.573853   C69.080772,1305.187500 69.552895,1297.802979 69.850533,1289.994995   C72.792694,1289.994995 74.761391,1289.994873 76.730095,1289.994873   C118.555046,1289.996582 160.380005,1290.009033 202.204910,1289.965698   C204.131699,1289.963745 206.057968,1289.461304 207.984497,1289.192017  z"
   id="path8" />
<path
   fill="#184672"
   opacity="1.000000"
   stroke="none"
   d=" M360.604797,639.029114   C360.705078,641.855713 360.892822,644.682373 360.893036,647.508972   C360.900787,759.119507 360.937347,870.730103 360.728363,982.340271   C360.719330,987.160645 363.403778,989.662842 366.024261,992.300903   C377.325897,1003.677917 388.978088,1014.705933 400.329559,1026.034546   C409.595062,1035.281250 418.578308,1044.810181 427.755463,1054.146362   C435.274048,1061.795288 442.887360,1069.351440 450.486084,1076.921265   C450.912079,1077.345581 451.587646,1077.519409 452.913696,1078.207886   C453.324249,1076.124268 453.927124,1074.492432 453.927185,1072.860596   C453.930847,956.752930 453.884979,840.645264 453.857727,724.537598   C453.857208,722.375000 454.031433,720.212402 454.502441,717.661377   C468.910706,728.854919 482.963867,740.408875 496.949249,752.044250   C499.458954,754.132263 501.689331,756.555908 504.024536,759.304199   C503.998230,796.280579 503.994568,832.777344 503.994202,869.274109   C503.993317,954.599915 503.983765,1039.925781 504.060120,1125.251587   C504.061829,1127.156738 505.047516,1129.061279 505.735901,1131.283447   C506.970856,1132.856323 507.964813,1134.191040 509.128937,1135.355713   C540.662720,1166.903076 572.231018,1198.415894 603.755981,1229.972168   C623.047241,1249.282471 642.276428,1268.654663 661.154846,1288.111084   C659.522827,1288.535400 658.269409,1288.847900 657.015991,1289.160156   C649.866394,1289.106812 642.716858,1289.005249 635.567261,1289.007324   C573.694153,1289.025879 511.821075,1289.063110 449.161835,1289.053101   C447.076691,1288.010132 445.649658,1287.137085 444.497681,1285.988403   C420.711029,1262.270264 396.960846,1238.515503 373.188629,1214.782837   C369.503540,1211.103882 365.746094,1207.497437 360.962250,1202.821533   C360.573273,1206.254395 360.180939,1208.117798 360.178345,1209.981812   C360.144836,1233.935059 360.199097,1257.888550 360.125946,1281.841553   C360.118530,1284.267334 359.428253,1286.691040 359.054840,1289.115723   C317.397644,1289.077148 275.740479,1289.040771 234.083298,1288.998047   C226.085266,1288.989868 218.087280,1288.956909 209.643860,1288.862549   C209.181549,1284.124878 209.149811,1279.460083 209.149811,1274.795288   C209.150284,1023.383911 209.153427,771.972473 209.156265,520.561096   C209.156281,518.959595 209.156281,517.358032 209.156281,514.654785   C216.587143,520.757446 223.216171,526.180786 229.823135,531.630920   C271.948578,566.380737 314.068237,601.137573 356.196899,635.883484   C357.215851,636.723938 358.316803,637.464905 359.725250,638.120117   C360.070953,637.987915 360.016754,637.936584 359.937988,638.182617   C360.093414,638.646606 360.341949,638.846741 360.604797,639.029114  z"
   id="path9" />
<path
   fill="#184672"
   opacity="1.000000"
   stroke="none"
   d=" M220.980865,1456.096680   C247.359177,1458.338379 269.501923,1469.497559 285.904663,1490.013916   C307.532135,1517.065430 315.109467,1547.395508 300.874115,1580.484131   C297.081329,1589.300049 290.552094,1596.938477 285.153351,1605.312744   C293.928345,1610.084961 302.559326,1616.970947 308.872223,1626.421509   C320.216461,1643.404419 322.348114,1662.267212 319.895844,1681.971802   C316.577911,1708.631714 306.147339,1731.531982 284.146667,1748.084961   C269.325623,1759.236328 252.272293,1765.410156 234.029068,1765.638306   C182.420120,1766.284058 130.797836,1765.864380 78.585472,1765.864380   C78.516479,1764.566284 78.441963,1763.164062 78.852074,1761.191772   C79.558212,1758.687500 79.972870,1756.753540 79.973518,1754.819214   C80.005730,1657.877441 80.001831,1560.935669 80.004677,1463.993896   C80.004883,1457.017212 80.014755,1457.006836 86.829781,1457.006592   C129.637390,1457.005005 172.445023,1457.020386 215.252548,1456.971680   C217.162323,1456.969604 219.071442,1456.401367 220.980865,1456.096680  M225.743240,1694.551025   C238.055466,1689.868896 244.372253,1677.870972 241.918182,1663.828857   C239.555984,1650.312622 230.545593,1642.846436 216.475754,1642.825684   C198.487473,1642.799316 180.499100,1642.819214 162.510773,1642.819214   C160.229782,1642.819214 157.948792,1642.819214 155.422363,1642.819214   C155.422363,1660.594360 155.422363,1677.811157 155.422363,1695.555908   C161.298096,1695.555908 166.922943,1695.614990 172.546188,1695.545044   C190.020248,1695.327759 207.493683,1695.061646 225.743240,1694.551025  M195.486435,1576.569824   C201.112869,1576.250366 206.939545,1576.752197 212.323868,1575.439575   C223.355255,1572.750244 230.025894,1561.418823 228.813461,1549.049316   C227.565231,1536.314697 219.359848,1527.175293 207.393143,1526.746948   C191.110641,1526.164062 174.795914,1526.475708 158.494934,1526.427856   C157.534210,1526.425049 156.572861,1526.636108 155.433777,1526.768433   C155.433777,1543.371460 155.433777,1559.743408 155.433777,1576.569824   C168.622391,1576.569824 181.556702,1576.569824 195.486435,1576.569824  z"
   id="path10" />
<path
   fill="#184672"
   opacity="1.000000"
   stroke="none"
   d=" M1140.737793,1586.171631   C1133.917603,1563.548340 1132.635010,1541.149780 1140.553833,1519.035156   C1150.187622,1492.131226 1170.134766,1474.999512 1196.168579,1465.244263   C1237.428101,1449.783813 1278.328003,1451.231567 1317.227905,1472.694702   C1346.167480,1488.662354 1361.898071,1513.763184 1363.111084,1547.287109   C1363.153198,1548.449829 1363.127930,1549.616821 1363.079956,1550.779663   C1363.067871,1551.072144 1362.845703,1551.355835 1362.619751,1551.872559   C1338.932861,1551.872559 1315.162109,1551.872559 1291.171997,1551.872559   C1290.975708,1551.349609 1290.606323,1550.774048 1290.556030,1550.171875   C1289.580566,1538.456055 1282.581177,1531.226807 1272.261353,1527.386353   C1255.531006,1521.160522 1238.899048,1522.148682 1222.928467,1530.328735   C1216.517456,1533.612305 1211.565796,1538.548340 1209.117432,1545.479736   C1204.981934,1557.187378 1209.795654,1568.451294 1221.177979,1573.807007   C1233.005005,1579.371704 1245.915894,1579.964233 1258.559204,1581.924072   C1277.116577,1584.800659 1295.963989,1586.794678 1314.038208,1591.604980   C1357.743042,1603.237305 1374.472412,1632.272705 1372.345093,1675.401611   C1370.646484,1709.834839 1352.049683,1734.040771 1322.090088,1748.646118   C1274.221558,1771.981689 1225.527588,1772.210449 1178.057861,1747.311401   C1150.108765,1732.651367 1134.114990,1708.763794 1131.351807,1676.791748   C1131.111572,1674.011597 1131.319946,1671.192505 1131.319946,1668.020264   C1155.646484,1668.020264 1179.885498,1668.020264 1204.490723,1668.020264   C1206.997192,1685.448120 1220.187012,1691.020264 1235.166260,1694.258301   C1250.495972,1697.572144 1265.679077,1696.864502 1280.329590,1691.009399   C1284.275635,1689.432617 1288.166748,1687.130737 1291.343872,1684.324707   C1302.242310,1674.700073 1300.297363,1659.140991 1287.544556,1652.146851   C1278.408569,1647.136108 1268.282837,1645.875610 1258.155762,1645.013794   C1238.746948,1643.361938 1219.262817,1642.314331 1200.394897,1636.901733   C1179.052856,1630.779053 1160.077881,1621.030884 1148.020996,1601.326050   C1145.177979,1596.679688 1143.230713,1591.485107 1140.737793,1586.171631  z"
   id="path11" />
<path
   fill="#184672"
   opacity="1.000000"
   stroke="none"
   d=" M908.017334,1654.997803   C913.556335,1699.524658 893.448914,1734.500122 850.356262,1752.591919   C807.443237,1770.608398 763.985535,1770.491821 721.418457,1751.082397   C694.959045,1739.017456 676.469116,1719.279663 669.769104,1690.163818   C668.144653,1683.104492 667.738525,1675.764771 666.706787,1668.066162   C691.990295,1668.066162 716.367371,1668.066162 740.970703,1668.066162   C742.642029,1682.786133 753.013184,1689.158203 765.633362,1692.849487   C782.756775,1697.857788 799.895752,1697.514893 816.599915,1690.984741   C820.695251,1689.383667 824.736145,1686.935669 827.970398,1683.970093   C838.517639,1674.298462 836.460510,1659.031128 823.899109,1652.153687   C814.618469,1647.072388 804.273743,1646.189575 794.019592,1644.906006   C776.036438,1642.655273 757.927246,1640.995728 740.153992,1637.604858   C723.994873,1634.521851 709.150635,1627.529785 696.717651,1616.306519   C681.717285,1602.765747 674.782715,1585.303711 672.539368,1565.660400   C669.831116,1541.946289 672.802429,1519.399048 686.997986,1499.413086   C699.814209,1481.369263 717.472656,1469.770508 738.227783,1463.052979   C775.960876,1450.840332 813.243347,1452.186523 848.902039,1470.123169   C879.974548,1485.753052 897.657471,1511.070190 899.461304,1546.482544   C899.544617,1548.118530 899.471985,1549.762207 899.471985,1551.756836   C875.339294,1551.756836 851.452332,1551.756836 827.199768,1551.756836   C826.500366,1544.343628 824.015259,1537.663574 817.908691,1532.788940   C811.032043,1527.299683 803.048462,1524.731567 794.439819,1523.955200   C779.926636,1522.646240 766.085022,1524.611694 754.180237,1533.754395   C738.728821,1545.620972 741.189331,1566.657471 758.950867,1574.343750   C763.792725,1576.439209 769.003174,1578.082886 774.205505,1578.872192   C791.482239,1581.492554 808.935486,1583.055786 826.119812,1586.144287   C838.498718,1588.369019 850.941895,1591.360474 862.680420,1595.798096   C889.539490,1605.952026 904.484375,1626.020142 908.017334,1654.997803  z"
   id="path12" />
<path
   fill="#184772"
   opacity="1.000000"
   stroke="none"
   d=" M435.113647,1727.482178   C434.071777,1728.897827 432.771393,1730.190308 432.029938,1731.748901   C427.096375,1742.118652 422.350037,1752.577881 417.347168,1762.913208   C416.690460,1764.269775 414.925262,1766.007202 413.661865,1766.016724   C389.180817,1766.200562 364.697937,1766.153076 338.760223,1766.153076   C339.611053,1760.819092 339.336975,1755.430420 341.330872,1751.081665   C385.782104,1654.126587 430.493286,1557.290649 475.090271,1460.402344   C476.443115,1457.463135 478.021942,1456.155518 481.464783,1456.282837   C489.618835,1456.584106 497.798340,1456.578369 505.953369,1456.292236   C509.503479,1456.167725 511.215790,1457.392944 512.678528,1460.568726   C537.247498,1513.913574 561.938110,1567.202515 586.599548,1620.504761   C606.373291,1663.242920 626.059875,1706.021851 646.018188,1748.673584   C648.631226,1754.257690 649.012207,1759.713623 648.517212,1765.901245   C646.750488,1765.998779 645.141357,1766.164551 643.532227,1766.164917   C621.203430,1766.171143 598.873901,1766.063232 576.546631,1766.240967   C573.155640,1766.267944 571.595154,1765.208374 570.241150,1762.202148   C565.118530,1750.828613 559.701538,1739.587769 554.070557,1727.617188   C552.361450,1726.621826 550.976746,1726.033325 549.591309,1726.031372   C514.290222,1725.981812 478.989044,1725.973755 443.688141,1726.059204   C442.050934,1726.063110 440.415985,1727.000244 438.779968,1727.502808   C438.394867,1727.576782 438.009766,1727.650757 437.304688,1727.270020   C436.631287,1726.400024 436.277893,1725.984619 435.924530,1725.569214   C435.654266,1726.206909 435.383972,1726.844482 435.113647,1727.482178  M501.499878,1660.383789   C510.265900,1660.383789 519.031921,1660.383789 528.509033,1660.383789   C516.806885,1633.479736 505.409943,1607.277344 493.617859,1580.166504   C482.047943,1607.501831 470.952820,1633.715454 459.665161,1660.383911   C473.861389,1660.383911 487.180634,1660.383911 501.499878,1660.383789  z"
   id="path13" />
<path
   fill="#2A5585"
   opacity="1.000000"
   stroke="none"
   d=" M1383.029663,1360.169312   C1381.218384,1360.300903 1379.406982,1360.432495 1377.018555,1360.052979   C1374.145752,1359.362915 1371.850342,1359.027222 1369.554810,1359.027100   C939.450378,1359.002075 509.345947,1359.001099 79.241531,1358.999268   C77.544922,1358.999268 75.848312,1358.999268 74.151711,1358.999268   C74.143982,1359.231201 74.136253,1359.463257 74.128532,1359.695190   C75.240150,1359.875854 76.351768,1360.056641 77.463387,1360.237305   C75.259338,1360.462891 73.055298,1360.688477 70.434410,1360.439819   C70.010208,1355.466309 69.989235,1350.967163 69.998764,1346.467896   C70.012421,1340.017456 70.021919,1340.007935 76.499954,1340.007690   C365.121460,1339.999023 653.742981,1339.992188 942.364502,1339.984985   C943.697571,1339.984985 945.112793,1340.258667 946.338867,1339.895386   C947.412720,1339.577393 948.273987,1338.542114 949.630005,1337.869873   C951.677856,1337.901245 953.324890,1337.886353 955.352539,1337.909180   C956.496887,1337.921265 957.260620,1337.895264 958.392944,1337.918213   C959.502869,1337.931030 960.244141,1337.895264 961.453613,1337.895996   C1098.453979,1337.944336 1234.986206,1337.956299 1371.518433,1337.963013   C1372.349731,1337.963135 1373.180908,1337.891235 1374.423340,1337.906616   C1376.213013,1337.931030 1377.591431,1337.901611 1379.313965,1337.909546   C1380.118408,1337.928345 1380.578857,1337.909912 1381.266357,1337.825806   C1381.785278,1337.585938 1381.957275,1337.330933 1382.004761,1336.996704   C1382.000000,1336.998291 1381.995728,1337.008423 1382.238647,1337.033447   C1382.481567,1337.058594 1382.968384,1337.097656 1382.968384,1337.097656   C1383.140503,1343.728516 1383.312744,1350.359253 1383.302002,1357.709961   C1383.089355,1359.009521 1383.059570,1359.589478 1383.029663,1360.169312  z"
   id="path14" />
<path
   fill="#B02126"
   opacity="1.000000"
   stroke="none"
   d=" M998.000000,1455.050537   C1028.956299,1455.050537 1059.412720,1455.050537 1090.333374,1455.050537   C1090.333374,1462.645874 1090.515381,1469.785034 1090.139038,1476.894653   C1090.082031,1477.972412 1087.553467,1479.486206 1085.959595,1479.828735   C1069.524170,1483.361816 1053.044434,1486.689331 1036.581421,1490.094727   C1035.133545,1490.394165 1033.715820,1490.838867 1031.783203,1491.348022   C1031.783203,1493.015503 1031.786865,1494.643677 1031.782715,1496.271851   C1031.609497,1563.925171 1031.496216,1631.578857 1031.132446,1699.231079   C1031.106812,1703.995728 1032.653198,1705.788818 1036.971924,1707.174194   C1053.288696,1712.408081 1069.443237,1718.145630 1085.726685,1723.486694   C1088.870239,1724.517822 1090.226562,1725.771851 1090.147827,1729.338989   C1089.887085,1741.141113 1090.049316,1752.952393 1090.049316,1765.193359   C1040.609375,1765.193359 991.082520,1765.193359 940.754639,1765.193359   C940.754639,1754.067505 941.104370,1742.952637 940.607239,1731.875854   C940.358337,1726.330200 941.850098,1723.860107 947.387634,1722.169434   C962.816956,1717.458862 977.956482,1711.807129 993.308655,1706.829834   C997.009705,1705.630127 997.994934,1703.854126 997.989319,1700.095947   C997.887634,1632.108154 997.909668,1564.120117 998.025391,1496.132324   C998.031921,1492.277222 996.912659,1490.651733 992.981140,1489.884277   C976.975281,1486.760132 961.041809,1483.264771 945.085632,1479.887451   C943.804932,1479.616455 942.554565,1479.202271 941.137817,1478.812744   C941.137817,1471.017944 941.137817,1463.395996 941.137817,1455.050537   C959.988647,1455.050537 978.744324,1455.050537 998.000000,1455.050537  z"
   id="path15" />


<path
   fill="#9F3841"
   opacity="1.000000"
   stroke="none"
   d=" M207.527313,1289.086914   C206.057968,1289.461304 204.131699,1289.963745 202.204910,1289.965698   C160.380005,1290.009033 118.555046,1289.996582 76.730095,1289.994873   C74.761391,1289.994873 72.792694,1289.994995 69.850533,1289.994995   C69.552895,1297.802979 69.080772,1305.187500 69.048981,1312.573853   C69.022614,1318.699951 69.478783,1324.830200 69.790268,1330.955078   C69.998222,1335.044189 72.507607,1336.302734 76.240044,1336.034790   C77.731712,1335.927490 79.238083,1336.028687 80.737770,1336.028687   C367.513611,1336.029297 654.289490,1336.029297 941.065308,1336.030273   C943.330505,1336.030273 945.595642,1336.044067 947.625427,1336.644043   C945.109070,1337.514648 942.828186,1338.036255 940.547180,1338.036621   C655.552063,1338.072998 370.556915,1338.072266 85.561775,1338.059448   C81.569321,1338.059204 77.540176,1338.184937 73.594635,1337.705200   C69.577568,1337.216797 68.052841,1338.704102 68.082321,1342.564575   C68.125572,1348.227783 68.012550,1353.892212 67.966118,1359.556030   C67.877930,1336.589966 67.787193,1313.623779 67.719749,1290.657715   C67.718391,1290.193359 67.988739,1289.728394 68.219460,1288.981689   C114.486450,1288.981689 160.778290,1288.981689 207.527313,1289.086914  z"
   id="path18" />
<path
   fill="#394269"
   opacity="1.000000"
   stroke="none"
   d=" M68.196472,1359.780151   C68.012550,1353.892212 68.125572,1348.227783 68.082321,1342.564575   C68.052841,1338.704102 69.577568,1337.216797 73.594635,1337.705200   C77.540176,1338.184937 81.569321,1338.059204 85.561775,1338.059448   C370.556915,1338.072266 655.552063,1338.072998 940.547180,1338.036621   C942.828186,1338.036255 945.109070,1337.514648 947.729370,1336.949219   C948.068726,1336.662109 948.459717,1336.810181 948.771240,1337.092041   C949.082825,1337.374023 949.229126,1337.823486 949.229126,1337.823486   C948.273987,1338.542114 947.412720,1339.577393 946.338867,1339.895386   C945.112793,1340.258667 943.697571,1339.984985 942.364502,1339.984985   C653.742981,1339.992188 365.121460,1339.999023 76.499954,1340.007690   C70.021919,1340.007935 70.012421,1340.017456 69.998764,1346.467896   C69.989235,1350.967163 70.010208,1355.466309 70.010338,1360.426880   C69.477684,1360.593628 68.952255,1360.298950 68.196472,1359.780151  z"
   id="path19" />
<path
   fill="#394269"
   opacity="1.000000"
   stroke="none"
   d=" M77.884338,1360.348877   C76.351768,1360.056641 75.240150,1359.875854 74.128532,1359.695190   C74.136253,1359.463257 74.143982,1359.231201 74.151711,1358.999268   C75.848312,1358.999268 77.544922,1358.999268 79.241531,1358.999268   C509.345947,1359.001099 939.450378,1359.002075 1369.554810,1359.027100   C1371.850342,1359.027222 1374.145752,1359.362915 1376.657227,1359.899414   C1375.049194,1360.341797 1373.225220,1360.500610 1371.401123,1360.500732   C1233.776489,1360.510010 1096.151855,1360.506226 958.527222,1360.505127   C792.245911,1360.503906 625.964661,1360.509766 459.683350,1360.502319   C332.557343,1360.496582 205.431320,1360.474854 77.884338,1360.348877  z"
   id="path20" />
<path
   fill="#9F3841"
   opacity="1.000000"
   stroke="none"
   d=" M949.076050,689.023804   C948.726807,687.311401 948.072205,685.598999 948.071777,683.886475   C948.029297,512.801636 948.036255,341.716736 948.040161,170.631882   C948.040222,169.474228 948.040161,168.316574 948.040161,166.693497   C943.394165,168.900970 939.071411,170.954834 934.365906,172.997070   C938.927734,169.743317 943.872314,166.501190 949.725830,162.663055   C949.725830,165.057983 949.726013,166.302322 949.725830,167.546661   C949.701965,339.673523 949.677002,511.800385 949.674500,683.927246   C949.674500,685.064270 949.983154,686.201355 950.297363,687.897095   C949.989990,688.645203 949.533020,688.834473 949.076050,689.023804  z"
   id="path21" />
<path
   fill="#AB282C"
   opacity="1.000000"
   stroke="none"
   d=" M833.074951,1868.029297   C833.885071,1869.255493 834.520691,1870.135254 836.050171,1872.252197   C836.050171,1861.164307 836.050171,1851.496826 836.050171,1841.582031   C838.937805,1841.582031 841.209778,1841.582031 843.911499,1841.582031   C843.911499,1856.081421 843.911499,1870.599731 843.911499,1885.116211   C836.154724,1886.750000 835.848206,1886.606079 832.099182,1880.043335   C827.419067,1871.851074 822.717346,1863.671265 817.157227,1855.651001   C817.157227,1865.468140 817.157227,1875.285278 817.157227,1885.428467   C814.224487,1885.428467 811.838989,1885.428467 809.167725,1885.428467   C809.167725,1870.823486 809.167725,1856.404297 809.167725,1842.001465   C816.952820,1840.254028 817.462219,1840.479004 821.062988,1846.851318   C824.992065,1853.804688 828.953247,1860.739990 833.074951,1868.029297  z"
   id="path22" />
<path
   fill="#AA282C"
   opacity="1.000000"
   stroke="none"
   d=" M506.054077,1855.007080   C506.053589,1850.357666 506.053589,1846.205200 506.053589,1841.697632   C508.709839,1841.697632 511.124268,1841.697632 514.191406,1841.697632   C514.191406,1848.727539 514.191406,1856.004517 514.191406,1863.281616   C514.191406,1870.586182 514.191406,1877.890625 514.191406,1885.130493   C505.706909,1886.499512 505.718475,1886.492920 501.790375,1879.621704   C497.264526,1871.704468 492.715668,1863.800415 487.189392,1856.071533   C487.189392,1865.724976 487.189392,1875.378418 487.189392,1885.383545   C484.184875,1885.383545 481.802277,1885.383545 479.117157,1885.383545   C479.117157,1870.801758 479.117157,1856.375732 479.117157,1841.954102   C487.163574,1840.317383 487.376251,1840.427002 491.216217,1847.244263   C495.784149,1855.353882 500.383362,1863.445801 506.054596,1871.473267   C506.054596,1866.150146 506.054596,1860.827148 506.054077,1855.007080  z"
   id="path23" />
<path
   fill="#AB282C"
   opacity="1.000000"
   stroke="none"
   d=" M441.993683,1841.820801   C453.108032,1838.970581 461.879547,1841.820557 468.052887,1850.061279   C473.299347,1857.064697 473.860840,1868.004395 469.173279,1875.449219   C464.135956,1883.449463 456.825745,1887.537231 447.351318,1886.562012   C437.700867,1885.568726 430.878021,1880.153076 428.014404,1870.931152   C425.074097,1861.462280 427.163544,1852.797363 434.883209,1846.085571   C436.848145,1844.376953 439.357513,1843.294678 441.993683,1841.820801  M460.274231,1853.288208   C454.594116,1848.320557 448.079498,1847.294312 442.434113,1850.477539   C437.077789,1853.497803 434.042450,1860.066040 435.159882,1866.218506   C436.322723,1872.620850 441.540741,1877.748657 447.940369,1878.538574   C454.054565,1879.293335 458.708801,1876.610352 461.822021,1871.573730   C465.542297,1865.554932 464.966522,1859.539185 460.274231,1853.288208  z"
   id="path24" />
<path
   fill="#AA282B"
   opacity="1.000000"
   stroke="none"
   d=" M772.598633,1885.561523   C760.530334,1880.936646 754.647400,1869.722168 757.692566,1857.682861   C760.619385,1846.111328 771.165771,1839.310791 783.635559,1840.954468   C794.296082,1842.359741 802.675293,1852.874146 802.437073,1864.546875   C802.201782,1876.076294 793.175964,1885.667236 781.347961,1886.600708   C778.593384,1886.817993 775.760376,1886.040527 772.598633,1885.561523  M774.543030,1849.456055   C773.260742,1850.206055 771.876526,1850.824707 770.712891,1851.727539   C763.824890,1857.071167 763.085083,1867.129761 769.031189,1873.780029   C774.987854,1880.442505 784.101868,1880.395508 790.410217,1873.669800   C794.437195,1869.376221 795.448547,1861.849365 792.717346,1856.497314   C789.610657,1850.409424 783.982422,1848.041504 774.543030,1849.456055  z"
   id="path25" />
<path
   fill="#AA2A2E"
   opacity="1.000000"
   stroke="none"
   d=" M586.037842,1841.316772   C588.839294,1841.350708 591.174988,1841.262451 593.490601,1841.438477   C600.774841,1841.992432 605.650940,1846.088745 606.945923,1852.605591   C608.208740,1858.960449 605.225830,1864.963135 599.111694,1868.335327   C598.389160,1868.733765 597.623718,1869.054443 596.261475,1869.706299   C599.942932,1874.810425 603.567505,1879.835693 607.290344,1884.997192   C598.512085,1886.783447 598.292786,1886.681274 593.712402,1879.828491   C591.722595,1876.851196 589.664368,1873.919556 586.531738,1871.229370   C586.531738,1875.889160 586.531738,1880.549072 586.531738,1885.477051   C583.450500,1885.477051 581.064758,1885.477051 578.367493,1885.477051   C578.367493,1870.877930 578.367493,1856.480591 578.367493,1841.315552   C580.728638,1841.315552 583.145813,1841.315552 586.037842,1841.316772  M589.458984,1862.607666   C590.778931,1862.502808 592.129028,1862.539429 593.412903,1862.265381   C596.845703,1861.532715 599.041260,1859.687866 599.057312,1855.829834   C599.073792,1851.868896 596.635742,1850.146484 593.271362,1849.580444   C591.086060,1849.212769 588.788696,1849.511353 586.157043,1849.511353   C586.157043,1853.188232 585.963684,1856.493896 586.270813,1859.752563   C586.367310,1860.776611 587.808411,1861.673828 589.458984,1862.607666  z"
   id="path26" />
<path
   fill="#A9292D"
   opacity="1.000000"
   stroke="none"
   d=" M1018.475525,1873.219116   C1021.418762,1877.253052 1024.141968,1880.981934 1026.960815,1884.841675   C1019.221497,1886.962402 1017.877991,1886.478516 1013.902588,1880.534302   C1011.776489,1877.355347 1009.616333,1874.199097 1007.444458,1871.051270   C1007.297424,1870.838135 1006.920898,1870.783325 1006.074646,1870.380249   C1006.074646,1875.497803 1006.074646,1880.357422 1006.074646,1885.469116   C1003.255066,1885.469116 1000.995605,1885.469116 998.320557,1885.469116   C998.320557,1870.901367 998.320557,1856.383423 998.320557,1841.517334   C1003.659241,1841.517334 1008.959229,1841.203979 1014.206604,1841.595215   C1021.045532,1842.105225 1025.660889,1846.585327 1026.834595,1853.066772   C1027.946533,1859.207764 1024.812622,1865.234009 1018.909729,1868.291382   C1018.173157,1868.672852 1017.420288,1869.022705 1016.368835,1869.536987   C1017.018799,1870.700439 1017.637146,1871.807251 1018.475525,1873.219116  M1008.509766,1849.264526   C1007.664429,1849.971069 1006.145142,1850.628052 1006.089050,1851.392456   C1005.828735,1854.942261 1005.973816,1858.521851 1005.973816,1862.311646   C1008.760681,1862.311646 1010.897522,1862.525879 1012.974182,1862.263916   C1016.502686,1861.818848 1018.787354,1859.797974 1018.887817,1856.085327   C1018.988342,1852.369629 1016.841370,1850.294067 1013.306702,1849.627075   C1012.018311,1849.383911 1010.683350,1849.387939 1008.509766,1849.264526  z"
   id="path27" />
<path
   fill="#17395D"
   opacity="1.000000"
   stroke="none"
   d=" M220.548340,1455.982544   C219.071442,1456.401367 217.162323,1456.969604 215.252548,1456.971680   C172.445023,1457.020386 129.637390,1457.005005 86.829781,1457.006592   C80.014755,1457.006836 80.004883,1457.017212 80.004677,1463.993896   C80.001831,1560.935669 80.005730,1657.877441 79.973518,1754.819214   C79.972870,1756.753540 79.558212,1758.687500 79.010361,1760.790771   C78.566078,1759.477173 78.345131,1757.994507 78.344933,1756.511963   C78.331406,1657.923950 78.335670,1559.335938 78.338394,1460.747925   C78.338440,1459.257690 78.338409,1457.767456 78.338409,1455.868408   C79.752136,1455.670166 80.998878,1455.342773 82.245667,1455.342651   C125.544273,1455.337158 168.842911,1455.354126 212.141479,1455.404175   C214.799759,1455.407227 217.457703,1455.706787 220.548340,1455.982544  z"
   id="path28" />
<path
   fill="#A8282C"
   opacity="1.000000"
   stroke="none"
   d=" M710.562927,1841.360352   C723.976990,1839.632446 733.669678,1844.292114 736.761963,1853.845703   C732.445984,1854.169678 728.620544,1854.444336 724.730286,1851.276001   C719.107910,1846.696899 711.255554,1848.063721 706.339844,1853.522339   C701.225159,1859.201904 701.137756,1867.957642 706.139954,1873.550781   C711.285828,1879.304932 718.509888,1880.646851 724.415833,1876.043091   C728.356812,1872.970947 732.262756,1873.497314 736.575684,1873.640381   C732.463440,1885.736450 715.740906,1890.630859 704.908630,1883.134521   C697.324768,1877.886475 693.474121,1870.602051 694.404175,1861.383179   C695.395447,1851.557129 700.921143,1844.947754 710.562927,1841.360352  z"
   id="path29" />
<path
   fill="#A8282C"
   opacity="1.000000"
   stroke="none"
   d=" M688.253540,1873.457886   C692.054321,1873.893677 690.012207,1875.602051 689.314331,1876.797607   C683.939148,1886.004883 670.144653,1889.399536 660.182922,1884.014893   C651.462585,1879.301514 646.754822,1869.464478 648.477478,1859.556396   C650.103516,1850.203979 657.682068,1842.364380 666.412964,1841.003174   C676.606750,1839.414062 685.948486,1843.804565 690.506714,1852.347778   C690.646729,1852.610107 690.589111,1852.978027 690.678833,1853.806885   C686.472351,1854.008057 682.731628,1854.647095 678.780151,1851.448730   C672.827209,1846.630249 664.901062,1848.003784 659.999451,1853.725586   C654.980103,1859.584839 655.078369,1868.152832 660.229492,1873.777710   C665.492310,1879.524658 672.468750,1880.029785 679.177246,1875.862549   C681.625916,1874.341431 684.951721,1874.232300 688.253540,1873.457886  z"
   id="path30" />
<path
   fill="#A9292D"
   opacity="1.000000"
   stroke="none"
   d=" M390.370087,1870.218994   C396.588348,1879.594971 403.685638,1880.826172 412.576111,1875.237915   C415.343140,1873.498535 419.260406,1873.589111 423.257172,1872.708252   C420.221436,1882.060913 410.512085,1887.757324 401.165344,1886.653442   C390.139771,1885.351440 381.531769,1876.355835 380.850433,1865.423706   C380.139465,1854.016113 387.113617,1843.910400 397.547211,1841.229492   C407.921448,1838.563843 418.797028,1843.644287 423.991760,1854.733276   C419.644043,1853.813965 415.697601,1853.917236 412.864960,1852.192017   C406.303101,1848.195068 400.512146,1847.448486 395.286011,1851.231079   C389.303345,1855.561279 387.512177,1862.129883 390.370087,1870.218994  z"
   id="path31" />
<path
   fill="#AC2D32"
   opacity="1.000000"
   stroke="none"
   d=" M620.696167,1856.005371   C620.709351,1861.325928 620.636108,1866.150269 620.760925,1870.969604   C620.879700,1875.557251 623.773865,1878.908691 627.516541,1878.626343   C632.047485,1878.284546 633.728638,1875.057861 633.787231,1871.051392   C633.930054,1861.276489 633.833801,1851.497925 633.833801,1841.530273   C636.695984,1841.530273 639.091553,1841.530273 641.708679,1841.530273   C641.708679,1852.660889 642.165222,1863.600830 641.543152,1874.479126   C641.149231,1881.367798 634.238770,1886.593506 627.312439,1886.739136   C620.656067,1886.879150 613.500244,1881.515747 613.093384,1874.602417   C612.453064,1863.719604 612.923218,1852.771362 612.923218,1841.578979   C615.253113,1841.578979 617.652954,1841.578979 620.696350,1841.578979   C620.696350,1846.309570 620.696350,1850.908203 620.696167,1856.005371  z"
   id="path32" />
<path
   fill="#AB282C"
   opacity="1.000000"
   stroke="none"
   d=" M860.874268,1870.094971   C860.860596,1872.717773 860.860596,1874.852173 860.860596,1877.390259   C866.037781,1877.390259 870.792480,1877.390259 875.850098,1877.390259   C875.850098,1880.205444 875.850098,1882.620361 875.850098,1885.403687   C868.293945,1885.403687 860.751892,1885.403687 853.053345,1885.403687   C852.919983,1884.679443 852.701782,1884.044678 852.700867,1883.409546   C852.681335,1869.601318 852.686035,1855.793213 852.686035,1841.648926   C860.562134,1841.648926 868.096191,1841.648926 875.898071,1841.648926   C875.898071,1844.009033 875.898071,1846.302734 875.898071,1849.221191   C871.146484,1849.221191 866.266907,1849.221191 861.123901,1849.221191   C861.123901,1852.777222 861.123901,1855.713867 861.123901,1859.265137   C865.728455,1859.265137 870.280273,1859.265137 875.143494,1859.265137   C875.143494,1862.261597 875.143494,1864.651367 875.143494,1867.637207   C871.548706,1867.637207 868.092529,1867.460327 864.670959,1867.727417   C863.368958,1867.829102 862.146545,1868.950073 860.874268,1870.094971  z"
   id="path33" />
<path
   fill="#AA2A2E"
   opacity="1.000000"
   stroke="none"
   d=" M970.463623,1883.548828   C959.712952,1890.086914 948.955383,1885.360229 947.585693,1873.509888   C951.313171,1873.196045 954.784729,1871.591309 957.446594,1876.615845   C959.010315,1879.567505 962.908936,1879.541748 965.745972,1876.999634   C968.391174,1874.629639 968.223328,1870.423950 965.109131,1868.364746   C962.661438,1866.746338 959.708435,1865.890503 956.975952,1864.704834   C951.039307,1862.129272 947.855103,1856.086304 949.303284,1850.132202   C950.813538,1843.922852 956.444092,1840.173950 963.317261,1840.801270   C969.631653,1841.377686 973.878235,1845.944824 974.329773,1852.862427   C970.676147,1853.238892 967.087158,1854.470703 964.470337,1850.027222   C963.944092,1849.133545 960.486938,1849.966064 958.381104,1850.002686   C958.548096,1852.226562 957.962219,1855.009766 959.086121,1856.522827   C960.296509,1858.152588 963.065735,1858.706055 965.229980,1859.532227   C977.005188,1864.026001 979.380249,1874.191284 970.463623,1883.548828  z"
   id="path34" />
<path
   fill="#AA2A2E"
   opacity="1.000000"
   stroke="none"
   d=" M545.892822,1848.950073   C546.141602,1850.417725 546.268799,1851.550537 546.438965,1853.066528   C542.697144,1852.876099 538.974976,1854.619995 536.427490,1850.061890   C535.959290,1849.224243 532.243347,1850.201782 530.026489,1850.341431   C530.426697,1852.523804 530.082092,1855.591553 531.391479,1856.693359   C533.697388,1858.633545 537.078979,1859.241577 539.893677,1860.641602   C546.559021,1863.957031 549.020569,1869.364502 547.178467,1876.250244   C545.438477,1882.754395 539.267456,1887.163452 532.576050,1886.683594   C525.568115,1886.181030 520.330261,1881.317261 519.506042,1874.515381   C519.470825,1874.224365 519.689453,1873.902588 519.895020,1873.273193   C523.256592,1873.481934 526.983398,1871.331787 529.250244,1876.553345   C530.565979,1879.584106 535.777405,1879.425903 537.926636,1876.761597   C540.243530,1873.889526 540.187988,1870.767212 537.206787,1868.440918   C535.424316,1867.049927 533.116821,1866.270142 530.961975,1865.429321   C523.857910,1862.657227 520.666870,1858.512817 520.994934,1852.274292   C521.272583,1846.995605 525.086487,1842.298828 530.108521,1841.050903   C536.795288,1839.389282 541.875854,1841.843018 545.892822,1848.950073  z"
   id="path35" />
<path
   fill="#AA2A2E"
   opacity="1.000000"
   stroke="none"
   d=" M890.411865,1841.257324   C900.852112,1839.846313 906.736328,1844.006348 907.123962,1853.013794   C903.505188,1853.160645 899.915710,1854.359863 897.294556,1850.021729   C896.787415,1849.182251 893.131409,1850.245117 890.927979,1850.430542   C891.339661,1852.607788 891.009155,1855.715454 892.322205,1856.762817   C894.822632,1858.757446 898.350586,1859.402588 901.292419,1860.917725   C907.758118,1864.247681 910.082275,1869.983032 907.948425,1876.760742   C905.873474,1883.350952 899.147156,1887.613770 892.436218,1886.591675   C885.330383,1885.509399 880.909546,1880.658813 880.601501,1873.335449   C884.091248,1873.462036 887.953430,1871.274780 890.188354,1876.465820   C890.727844,1877.718994 894.079895,1878.649170 895.800659,1878.254761   C897.501465,1877.864624 899.746155,1875.751709 899.980896,1874.137085   C900.253235,1872.263794 899.076355,1869.625732 897.646851,1868.209717   C896.108459,1866.685669 893.613403,1865.988037 891.420959,1865.290649   C885.735168,1863.481689 882.382751,1859.778809 881.971375,1853.808350   C881.553650,1847.746460 884.587830,1843.718750 890.411865,1841.257324  z"
   id="path36" />
<path
   fill="#2A98BB"
   opacity="1.000000"
   stroke="none"
   d=" M1243.037109,928.953979   C1244.010864,930.646729 1245.714600,932.293335 1245.825073,934.040710   C1246.192383,939.850037 1246.000488,945.695557 1245.999634,951.527222   C1245.983032,1062.663940 1245.962646,1173.800781 1245.948486,1284.937500   C1245.948242,1285.936035 1246.019775,1286.934448 1246.026123,1288.467041   C1245.994385,1289.001099 1245.846191,1289.151611 1245.475342,1288.999390   C1244.738281,1287.150635 1244.052368,1285.454102 1244.051636,1283.757446   C1244.002441,1168.852173 1244.018677,1053.947021 1243.958618,939.041809   C1243.956909,935.766113 1243.194824,932.490845 1242.850220,929.150452   C1242.913208,929.085571 1243.037109,928.953918 1243.037109,928.953979  z"
   id="path37" />
<path
   fill="#AA2A2E"
   opacity="1.000000"
   stroke="none"
   d=" M565.824463,1884.428955   C563.354797,1885.260132 560.986389,1885.656982 557.969177,1886.162598   C557.969177,1873.762451 557.969177,1862.048828 557.969177,1849.794067   C555.055237,1849.561401 552.673218,1849.371216 550.018188,1849.159180   C550.018188,1846.601196 550.018188,1844.207642 550.018188,1841.562256   C558.046753,1841.562256 565.787354,1841.562256 573.795532,1841.562256   C573.795532,1844.064087 573.795532,1846.331299 573.795532,1849.131104   C571.408691,1849.288574 569.010437,1849.446899 565.925720,1849.650391   C565.925720,1861.145996 565.925720,1872.570312 565.824463,1884.428955  z"
   id="path38" />
<path
   fill="#AB282C"
   opacity="1.000000"
   stroke="none"
   d=" M1056.929199,1873.946777   C1056.701050,1876.681519 1057.426636,1877.838379 1059.956909,1877.693970   C1063.094727,1877.514893 1066.250610,1877.651123 1069.790527,1877.651123   C1069.790527,1880.233276 1069.790527,1882.618042 1069.790527,1885.383301   C1063.085327,1885.383301 1056.227783,1885.383301 1049.093872,1885.383301   C1049.093872,1870.828857 1049.093872,1856.427612 1049.093872,1841.666748   C1051.492310,1841.666748 1053.882812,1841.666748 1056.928345,1841.666748   C1056.928345,1852.318237 1056.928345,1862.882935 1056.929199,1873.946777  z"
   id="path39" />
<path
   fill="#AA2A2E"
   opacity="1.000000"
   stroke="none"
   d=" M750.859070,1845.328979   C750.861511,1858.889160 750.861511,1871.988159 750.861511,1885.429199   C747.987732,1885.429199 745.599060,1885.429199 742.916992,1885.429199   C742.916992,1870.746094 742.916992,1856.207397 742.916992,1841.129395   C745.837830,1842.564575 750.622375,1838.285767 750.859070,1845.328979  z"
   id="path40" />
<path
   fill="#2A98BB"
   opacity="1.000000"
   stroke="none"
   d=" M1383.124756,1336.716309   C1382.968384,1337.097656 1382.481567,1337.058594 1382.231689,1336.563965   C1381.991943,1323.596802 1382.014893,1311.124146 1382.007324,1298.651489   C1382.002686,1290.969727 1381.308594,1290.017578 1373.542236,1290.051025   C1331.673950,1290.231812 1289.806396,1290.564087 1247.938232,1290.760132   C1247.243408,1290.763306 1246.543579,1289.711304 1245.846191,1289.151611   C1245.846191,1289.151611 1245.994385,1289.001099 1246.067139,1288.924805   C1291.578125,1288.848389 1337.016479,1288.848389 1383.281006,1288.848389   C1383.281006,1304.912964 1383.281006,1320.624023 1383.124756,1336.716309  z"
   id="path41" />
<path
   fill="#153858"
   opacity="1.000000"
   stroke="none"
   d=" M439.226685,1727.616943   C440.415985,1727.000244 442.050934,1726.063110 443.688141,1726.059204   C478.989044,1725.973755 514.290222,1725.981812 549.591309,1726.031372   C550.976746,1726.033325 552.361450,1726.621826 553.894531,1727.297119   C515.919495,1727.681763 477.796448,1727.706543 439.226685,1727.616943  z"
   id="path42" />
<path
   fill="#2A98BB"
   opacity="1.000000"
   stroke="none"
   d=" M1145.488770,848.592041   C1154.404175,855.762390 1163.337524,862.910645 1172.227051,870.112976   C1176.226318,873.353394 1180.138062,876.701721 1184.145264,880.402039   C1184.200806,880.803040 1183.946411,881.069519 1183.587158,881.041504   C1179.949463,878.623291 1176.702515,876.188354 1173.382812,873.856995   C1170.766724,872.019836 1167.858765,870.547119 1165.444946,868.485718   C1162.243286,865.751282 1159.442871,862.552551 1156.385132,859.642395   C1152.623657,856.062256 1148.774902,852.573914 1145.093994,848.931213   C1145.224243,848.816528 1145.488770,848.592041 1145.488770,848.592041  z"
   id="path43" />
<path
   fill="#2A98BB"
   opacity="1.000000"
   stroke="none"
   d=" M1008.524536,735.524841   C1019.365967,744.356201 1030.207397,753.187500 1041.091064,762.432983   C1041.133301,762.847107 1040.918701,763.083618 1040.564453,763.041626   C1039.306641,762.646973 1038.229736,762.500061 1037.527466,761.908630   C1032.510254,757.683472 1027.538818,753.402466 1022.612976,749.070801   C1017.705566,744.755310 1012.868164,740.360168 1008.133606,735.883911   C1008.267212,735.767883 1008.524536,735.524841 1008.524536,735.524841  z"
   id="path44" />
<path
   fill="#2A98BB"
   opacity="1.000000"
   stroke="none"
   d=" M1060.035278,777.956360   C1069.411133,785.608459 1078.786987,793.260559 1088.223877,801.304077   C1088.284912,801.695435 1087.987671,802.012451 1087.642578,801.965210   C1081.363281,797.592773 1075.201782,793.540222 1069.576416,788.845276   C1065.911621,785.786621 1063.026123,781.794067 1059.852783,778.154297   C1059.913940,778.088745 1060.035278,777.956360 1060.035278,777.956360  z"
   id="path45" />
<path
   fill="#2A98BB"
   opacity="1.000000"
   stroke="none"
   d=" M968.547058,702.503357   C979.005310,711.049683 989.463501,719.595947 1000.000244,728.528442   C1000.078674,728.914673 999.910767,729.115295 999.569580,729.040161   C988.811279,720.319824 978.394165,711.674622 968.121460,702.899902   C968.265808,702.770386 968.547058,702.503357 968.547058,702.503357  z"
   id="path46" />
<path
   fill="#9F3841"
   opacity="1.000000"
   stroke="none"
   d=" M985.170288,1877.560547   C992.709351,1877.135254 988.519165,1882.326660 989.834045,1885.431885   C986.939941,1885.431885 984.571167,1885.431885 981.593750,1885.431885   C983.166504,1882.813110 978.253723,1878.313599 985.170288,1877.560547  z"
   id="path47" />
<path
   fill="#2A98BB"
   opacity="1.000000"
   stroke="none"
   d=" M1117.595215,825.418335   C1126.796387,832.942139 1135.997437,840.466003 1145.343750,848.290894   C1145.488770,848.592041 1145.224243,848.816528 1144.750488,848.876709   C1140.989990,846.509766 1137.546143,844.266174 1134.449951,841.616150   C1128.520752,836.540955 1122.789185,831.234863 1117.135620,825.878174   C1117.295654,825.731873 1117.595215,825.418335 1117.595215,825.418335  z"
   id="path48" />
<path
   fill="#AC2D32"
   opacity="1.000000"
   stroke="none"
   d=" M1035.243774,1885.790039   C1030.055176,1884.268921 1033.301147,1880.749023 1032.477661,1877.886963   C1035.142090,1877.886963 1037.379517,1877.886963 1040.030518,1877.886963   C1040.030518,1880.155029 1040.030518,1882.511230 1040.030518,1885.505615   C1038.754028,1885.593384 1037.206421,1885.699707 1035.243774,1885.790039  z"
   id="path49" />
<path
   fill="#2A98BB"
   opacity="1.000000"
   stroke="none"
   d=" M1195.470703,889.584412   C1202.652954,895.417297 1209.835327,901.250183 1217.053711,907.490967   C1217.089722,907.898865 1216.898071,908.104309 1216.546265,908.054932   C1209.111816,902.022095 1202.029053,896.038635 1195.077637,889.937744   C1195.208862,889.820251 1195.470703,889.584412 1195.470703,889.584412  z"
   id="path50" />
<path
   fill="#2A98BB"
   opacity="1.000000"
   stroke="none"
   d=" M949.117676,689.410156   C949.533020,688.834473 949.989990,688.645203 950.560242,688.229248   C956.502991,692.658447 962.332581,697.314331 968.354614,702.236816   C968.547058,702.503357 968.265808,702.770386 967.770691,702.850220   C965.811584,701.948120 964.357361,700.951294 962.881775,699.987000   C958.434448,697.080627 953.978760,694.186890 949.526367,691.288208   C949.403992,690.790955 949.281616,690.293762 949.117676,689.410156  z"
   id="path51" />
<path
   fill="#2A98BB"
   opacity="1.000000"
   stroke="none"
   d=" M1041.239014,762.727417   C1047.466675,767.530762 1053.588745,772.453796 1059.873047,777.666626   C1060.035278,777.956360 1059.913940,778.088745 1059.505615,778.079834   C1051.410278,775.049072 1046.216675,769.003113 1040.918701,763.083618   C1040.918701,763.083618 1041.133301,762.847107 1041.239014,762.727417  z"
   id="path52" />
<path
   fill="#2A98BB"
   opacity="1.000000"
   stroke="none"
   d=" M1088.445068,801.548462   C1094.668579,806.374146 1100.732056,811.346802 1106.870728,816.686890   C1106.946045,817.054382 1106.795654,817.207581 1106.465698,817.103638   C1104.839355,816.302002 1103.359253,815.814514 1102.278076,814.870239   C1097.452393,810.655640 1092.740601,806.310425 1087.987671,802.012451   C1087.987671,802.012451 1088.284912,801.695435 1088.445068,801.548462  z"
   id="path53" />
<path
   fill="#2A98BB"
   opacity="1.000000"
   stroke="none"
   d=" M1217.184326,907.794922   C1222.470581,911.870544 1227.662476,916.050171 1232.931885,920.609009   C1233.009644,920.988281 1232.852539,921.154358 1232.482178,921.101196   C1224.877441,919.275879 1221.346069,913.151428 1216.898071,908.104309   C1216.898071,908.104309 1217.089722,907.898865 1217.184326,907.794922  z"
   id="path54" />
<path
   fill="#2A98BB"
   opacity="1.000000"
   stroke="none"
   d=" M1185.486694,881.468262   C1188.693970,883.989441 1191.901367,886.510620 1195.289673,889.308105   C1195.470703,889.584412 1195.208862,889.820251 1194.731201,889.882690   C1191.154907,887.307922 1188.056396,884.670715 1185.093994,881.895874   C1185.230103,881.758240 1185.486694,881.468262 1185.486694,881.468262  z"
   id="path55" />
<path
   fill="#2A98BB"
   opacity="1.000000"
   stroke="none"
   d=" M1107.021240,816.977783   C1110.466797,819.565735 1113.837036,822.230347 1117.401367,825.156616   C1117.595215,825.418335 1117.295654,825.731873 1116.792969,825.826050   C1113.125488,823.015991 1109.960571,820.111755 1106.795654,817.207581   C1106.795654,817.207581 1106.946045,817.054382 1107.021240,816.977783  z"
   id="path56" />
<path
   fill="#2A98BB"
   opacity="1.000000"
   stroke="none"
   d=" M1233.087769,920.904907   C1236.333374,923.348938 1239.500854,925.876343 1242.852783,928.678833   C1243.037109,928.953918 1242.913208,929.085571 1242.507568,929.077942   C1239.018921,926.431641 1235.935791,923.792969 1232.852539,921.154358   C1232.852539,921.154358 1233.009644,920.988281 1233.087769,920.904907  z"
   id="path57" />
<path
   fill="#2A98BB"
   opacity="1.000000"
   stroke="none"
   d=" M1000.162720,728.814453   C1002.889404,730.798645 1005.531982,732.882996 1008.349548,735.246094   C1008.524536,735.524841 1008.267212,735.767883 1007.787598,735.837463   C1004.842224,733.643127 1002.376526,731.379211 999.910767,729.115295   C999.910767,729.115295 1000.078674,728.914673 1000.162720,728.814453  z"
   id="path58" />
<path
   fill="#9F3841"
   opacity="1.000000"
   stroke="none"
   d=" M933.646179,173.042267   C931.558838,174.651474 929.130493,176.319717 926.325806,177.967941   C928.401367,176.332382 930.853271,174.716827 933.646179,173.042267  z"
   id="path59" />
<path
   fill="#153858"
   opacity="1.000000"
   stroke="none"
   d=" M435.431946,1727.585449   C435.383972,1726.844482 435.654266,1726.206909 435.924530,1725.569214   C436.277893,1725.984619 436.631287,1726.400024 437.020569,1727.177490   C436.621063,1727.589233 436.185638,1727.638916 435.431946,1727.585449  z"
   id="path60" />
<path
   fill="#2A98BB"
   opacity="1.000000"
   stroke="none"
   d=" M1383.244263,1360.125000   C1383.059570,1359.589478 1383.089355,1359.009521 1383.240479,1358.169312   C1383.394287,1358.632812 1383.426514,1359.356812 1383.244263,1360.125000  z"
   id="path61" />
<path
   fill="#2A98BB"
   opacity="1.000000"
   stroke="none"
   d=" M1184.332397,880.674194   C1184.766357,880.654480 1185.021118,880.831970 1185.357422,881.273071   C1185.486694,881.468262 1185.230103,881.758240 1184.885254,881.781372   C1184.280762,881.609314 1184.082764,881.364319 1183.946411,881.069519   C1183.946411,881.069519 1184.200806,880.803040 1184.332397,880.674194  z"
   id="path62" />

<path
   fill="#0695D1"
   opacity="1.000000"
   stroke="none"
   d=" M1183.587158,881.041504   C1184.082764,881.364319 1184.280762,881.609314 1184.749023,881.919067   C1188.056396,884.670715 1191.154907,887.307922 1194.599976,890.000122   C1202.029053,896.038635 1209.111816,902.022095 1216.546265,908.054932   C1221.346069,913.151428 1224.877441,919.275879 1232.482178,921.101196   C1235.935791,923.792969 1239.018921,926.431641 1242.444580,929.142822   C1243.194824,932.490845 1243.956909,935.766113 1243.958618,939.041809   C1244.018677,1053.947021 1244.002441,1168.852173 1244.051636,1283.757446   C1244.052368,1285.454102 1244.738281,1287.150635 1245.475342,1288.999390   C1246.543579,1289.711304 1247.243408,1290.763306 1247.938232,1290.760132   C1289.806396,1290.564087 1331.673950,1290.231812 1373.542236,1290.051025   C1381.308594,1290.017578 1382.002686,1290.969727 1382.007324,1298.651489   C1382.014893,1311.124146 1381.991943,1323.596802 1381.988770,1336.538940   C1381.995728,1337.008423 1382.000000,1336.998291 1381.790039,1337.083130   C1381.305786,1337.338745 1381.125488,1337.579956 1381.039307,1337.891479   C1380.578857,1337.909912 1380.118408,1337.928345 1379.250000,1337.566528   C1376.950684,1335.370605 1375.276611,1335.128296 1374.012207,1337.853027   C1373.180908,1337.891235 1372.349731,1337.963135 1371.518433,1337.963013   C1234.986206,1337.956299 1098.453979,1337.944336 961.406372,1337.580200   C959.935425,1337.441650 958.979858,1337.655518 958.024292,1337.869385   C957.260620,1337.895264 956.496887,1337.921265 955.301147,1337.583252   C953.094299,1336.448242 951.319580,1335.677124 949.544800,1334.906006   C949.384827,1333.541260 949.224915,1332.176514 949.072998,1330.159790   C949.025146,1329.335815 948.969421,1329.163940 948.913757,1328.992065   C949.001892,1316.342896 949.165710,1303.693726 949.166931,1291.044556   C949.186218,1098.683838 949.184082,906.323059 949.190430,713.962280   C949.190491,711.631226 949.235657,709.300232 949.707825,706.376709   C950.108093,702.842651 950.060364,699.901123 949.841797,696.932373   C949.670898,696.905090 949.335754,696.991272 949.335754,696.991272   C949.312683,695.346252 949.289612,693.701233 949.396484,691.672241   C953.978760,694.186890 958.434448,697.080627 962.881775,699.987000   C964.357361,700.951294 965.811584,701.948120 967.626343,702.979736   C978.394165,711.674622 988.811279,720.319824 999.569580,729.040161   C1002.376526,731.379211 1004.842224,733.643127 1007.653992,735.953491   C1012.868164,740.360168 1017.705566,744.755310 1022.612976,749.070801   C1027.538818,753.402466 1032.510254,757.683472 1037.527466,761.908630   C1038.229736,762.500061 1039.306641,762.646973 1040.564453,763.041626   C1046.216675,769.003113 1051.410278,775.049072 1059.444336,778.145386   C1063.026123,781.794067 1065.911621,785.786621 1069.576416,788.845276   C1075.201782,793.540222 1081.363281,797.592773 1087.642578,801.965210   C1092.740601,806.310425 1097.452393,810.655640 1102.278076,814.870239   C1103.359253,815.814514 1104.839355,816.302002 1106.465698,817.103638   C1109.960571,820.111755 1113.125488,823.015991 1116.633057,825.972351   C1122.789185,831.234863 1128.520752,836.540955 1134.449951,841.616150   C1137.546143,844.266174 1140.989990,846.509766 1144.620361,848.991455   C1148.774902,852.573914 1152.623657,856.062256 1156.385132,859.642395   C1159.442871,862.552551 1162.243286,865.751282 1165.444946,868.485718   C1167.858765,870.547119 1170.766724,872.019836 1173.382812,873.856995   C1176.702515,876.188354 1179.949463,878.623291 1183.587158,881.041504  M1219.858154,947.181396   C1219.858154,947.181396 1219.783936,947.284485 1219.852417,946.532959   C1218.869629,946.042603 1217.886841,945.552246 1216.988281,945.030273   C1216.988281,945.030273 1216.942627,945.107727 1216.916992,944.355957   C1215.781982,943.767883 1214.646973,943.179810 1213.797241,942.590576   C1213.797241,942.590576 1213.515747,942.544250 1213.660400,941.807312   C1209.880615,938.179382 1206.488892,933.960876 1200.693604,933.300354   C1200.693604,933.300354 1200.686646,933.355896 1200.833374,932.792603   C1200.753174,932.513428 1200.672852,932.234253 1200.592529,931.955078   C1200.475586,932.427979 1200.358643,932.900879 1200.089844,933.834961   C1200.089844,933.834961 1199.681152,934.096924 1199.013672,934.216553   C1195.391968,937.867371 1198.110840,942.125610 1198.106079,946.016052   C1197.973267,1055.770996 1198.009277,1165.526123 1197.958252,1275.281250   C1197.956543,1278.901489 1196.846313,1282.570557 1197.202515,1286.121704   C1197.393311,1288.023560 1199.537109,1291.193115 1200.929688,1291.264893   C1208.040161,1291.631348 1215.196411,1291.248291 1222.328003,1290.933716   C1223.549805,1290.879883 1224.730103,1289.887817 1226.248535,1288.970459   C1226.248535,1288.970459 1226.712891,1288.848999 1227.447510,1288.448120   C1227.637573,1286.490723 1227.993652,1284.533325 1227.994019,1282.575928   C1228.014893,1176.134155 1228.002563,1069.692261 1228.024170,963.250488   C1228.024658,961.112122 1228.287354,958.959656 1228.596191,956.838318   C1229.343384,951.708008 1226.159180,948.055969 1220.948608,948.056152   C1220.948608,948.056152 1220.946533,948.142761 1220.742310,947.610046   C1220.405518,947.462097 1220.068848,947.314148 1219.858154,947.181396  z"
   id="path64" />
<path
   fill="#922125"
   opacity="1.000000"
   stroke="none"
   d=" M856.577332,1287.104370   C856.485718,1285.113403 856.313965,1283.122559 856.313843,1281.131592   C856.300476,961.390991 856.299438,641.650452 856.299744,321.909851   C856.299744,320.910431 856.327087,319.910980 856.604126,318.487427   C856.866638,318.063263 857.156433,317.994995 857.156433,317.994995   C857.713623,318.661957 858.766296,319.340668 858.750854,319.994049   C858.605591,326.119690 858.037537,332.240997 858.036865,338.363586   C858.002258,653.381409 858.011963,968.399170 858.001221,1283.416992   C858.001160,1285.065308 857.778687,1286.713623 857.360718,1288.414551   C856.899963,1288.012939 856.738647,1287.558594 856.577332,1287.104370  z"
   id="path65" />
<path
   fill="#9F3841"
   opacity="1.000000"
   stroke="none"
   d=" M359.261475,1289.351074   C359.428253,1286.691040 360.118530,1284.267334 360.125946,1281.841553   C360.199097,1257.888550 360.144836,1233.935059 360.178345,1209.981812   C360.180939,1208.117798 360.573273,1206.254395 360.962250,1202.821533   C365.746094,1207.497437 369.503540,1211.103882 373.188629,1214.782837   C396.960846,1238.515503 420.711029,1262.270264 444.497681,1285.988403   C445.649658,1287.137085 447.076691,1288.010132 448.704956,1289.150879   C447.786560,1289.445923 445.966095,1290.212524 445.380096,1289.662842   C439.614410,1284.254883 434.052704,1278.629517 428.435455,1273.063354   C421.758789,1266.447388 415.077911,1259.835693 408.410858,1253.210083   C402.232758,1247.070435 396.109009,1240.875610 389.892029,1234.775757   C380.961334,1226.013306 371.967560,1217.315186 361.988129,1207.604492   C361.988129,1212.553467 361.963776,1216.795532 361.992218,1221.037476   C362.139343,1242.994141 362.335327,1264.950806 362.328766,1286.907471   C362.328522,1287.800659 360.464050,1288.693359 359.261475,1289.351074  z"
   id="path66" />
<path
   fill="#9F3841"
   opacity="1.000000"
   stroke="none"
   d=" M856.355835,1287.479980   C856.738647,1287.558594 856.899963,1288.012939 857.076416,1288.715332   C854.786621,1289.586792 852.503479,1290.601929 850.171082,1290.731567   C847.402893,1290.885620 844.592468,1290.037842 841.800049,1290.035400   C783.183350,1289.985962 724.566711,1289.998169 665.950012,1289.982300   C663.089355,1289.981445 660.228699,1289.834351 657.192017,1289.457764   C658.269409,1288.847900 659.522827,1288.535400 661.154846,1288.111084   C663.291443,1288.313843 665.049255,1288.902344 666.807495,1288.903564   C727.910828,1288.947510 789.014099,1288.946533 850.117371,1288.887695   C852.123413,1288.885742 854.128723,1288.214722 856.355835,1287.479980  z"
   id="path67" />
<path
   fill="#9F3841"
   opacity="1.000000"
   stroke="none"
   d=" M848.996704,320.365784   C839.964539,326.415741 830.555420,332.352295 820.811035,338.372192   C820.751404,337.727570 820.811096,336.638275 821.334656,336.325348   C830.395813,330.910980 839.513977,325.592102 848.996704,320.365784  z"
   id="path68" />
<path
   fill="#9F3841"
   opacity="1.000000"
   stroke="none"
   d=" M744.873413,385.201904   C737.495117,390.262970 729.732971,395.238007 721.629028,400.288635   C722.174683,399.066803 722.779541,397.329803 723.997620,396.546570   C729.934265,392.729187 736.020813,389.143188 742.097534,385.548462   C742.751404,385.161713 743.685486,385.248688 744.873413,385.201904  z"
   id="path69" />
<path
   fill="#9F3841"
   opacity="1.000000"
   stroke="none"
   d=" M768.228943,370.890778   C761.047119,375.655884 753.489014,380.436584 745.577454,385.266357   C747.463379,383.260925 749.442200,380.770264 751.997070,379.243835   C757.115601,376.185699 762.549133,373.654877 768.228943,370.890778  z"
   id="path70" />
<path
   fill="#9F3841"
   opacity="1.000000"
   stroke="none"
   d=" M804.678772,348.033234   C798.726013,352.122528 792.371948,356.184631 785.671204,360.313232   C785.331238,360.215485 785.269714,359.969086 785.354431,359.898804   C791.136353,355.099609 796.422241,349.505493 804.678772,348.033234  z"
   id="path71" />
<path
   fill="#9F3841"
   opacity="1.000000"
   stroke="none"
   d=" M784.979004,360.335815   C780.086975,363.702606 774.811035,367.083191 769.211914,370.566223   C772.039612,364.056122 778.851379,363.015808 784.979004,360.335815  z"
   id="path72" />
<path
   fill="#9F3841"
   opacity="1.000000"
   stroke="none"
   d=" M820.014893,338.399963   C815.507996,341.673462 810.630981,344.820648 805.402954,348.023560   C808.772583,343.108795 813.636658,339.839996 820.014893,338.399963  z"
   id="path73" />
<path
   fill="#9F3841"
   opacity="1.000000"
   stroke="none"
   d=" M857.110229,317.659485   C857.156433,317.994995 856.866638,318.063263 856.720764,318.033936   C854.441223,318.733551 852.307495,319.462433 849.819580,320.303650   C850.621460,319.006744 851.540344,317.167816 853.022705,316.348969   C853.917297,315.854767 855.687378,316.945435 857.110229,317.659485  z"
   id="path74" />
<path
   fill="#2A98BB"
   opacity="1.000000"
   stroke="none"
   d=" M950.012695,696.959595   C950.060364,699.901123 950.108093,702.842651 949.816895,705.925293   C949.365723,703.635010 949.253418,701.203613 949.380249,698.225708   C949.793640,697.462952 949.924744,697.223083 950.012695,696.959595  z"
   id="path75" />
<path
   fill="#2A98BB"
   opacity="1.000000"
   stroke="none"
   d=" M949.346802,1335.215576   C951.319580,1335.677124 953.094299,1336.448242 954.920471,1337.545410   C953.324890,1337.886353 951.677856,1337.901245 949.630005,1337.869873   C949.229126,1337.823486 949.082825,1337.374023 948.965698,1337.168823   C948.948669,1336.484131 949.048767,1336.004761 949.346802,1335.215576  z"
   id="path76" />
<path
   fill="#9F3841"
   opacity="1.000000"
   stroke="none"
   d=" M948.741455,1329.071777   C948.969421,1329.163940 949.025146,1329.335815 948.972656,1329.756348   C948.703796,1329.829590 948.523438,1329.667114 948.396790,1329.470215   C948.365234,1329.421265 948.507019,1329.260742 948.741455,1329.071777  z"
   id="path77" />
<path
   fill="#9F3841"
   opacity="1.000000"
   stroke="none"
   d=" M721.038574,400.315674   C721.072266,400.572662 720.828247,400.821533 720.312012,401.085999   C720.280151,400.836914 720.520447,400.572235 721.038574,400.315674  z"
   id="path78" />
<path
   fill="#FFFFFF"
   opacity="1.000000"
   stroke="none"
   d=" M360.629700,638.742798   C360.341949,638.846741 360.093414,638.646606 359.901886,638.192078   C360.181244,638.122437 360.417938,638.289429 360.629700,638.742798  z"
   id="path79" />
<path
   fill="#2A5585"
   opacity="1.000000"
   stroke="none"
   d=" M949.841797,696.932373   C949.924744,697.223083 949.793640,697.462952 949.439209,697.771545   C949.259033,697.863953 949.115540,697.410278 949.225647,697.200806   C949.335754,696.991272 949.670898,696.905090 949.841797,696.932373  z"
   id="path80" />
<path
   fill="#153858"
   opacity="1.000000"
   stroke="none"
   d=" M504.024536,759.304199   C504.614868,760.685730 505.673645,762.546326 505.676086,764.408325   C505.767212,833.673218 505.766235,902.938293 505.765594,972.203308   C505.765106,1024.817993 505.748260,1077.432739 505.656433,1130.506714   C505.047516,1129.061279 504.061829,1127.156738 504.060120,1125.251587   C503.983765,1039.925781 503.993317,954.599915 503.994202,869.274109   C503.994568,832.777344 503.998230,796.280579 504.024536,759.304199  z"
   id="path81" />



<path
   fill="#2A98BB"
   opacity="1.000000"
   stroke="none"
   d=" M1374.423340,1337.906738   C1375.276611,1335.128296 1376.950684,1335.370605 1378.906006,1337.529297   C1377.591431,1337.901611 1376.213013,1337.931030 1374.423340,1337.906738  z"
   id="path85" />
<path
   fill="#2A98BB"
   opacity="1.000000"
   stroke="none"
   d=" M958.392944,1337.918213   C958.979858,1337.655518 959.935425,1337.441650 960.938232,1337.543701   C960.244141,1337.895264 959.502869,1337.931030 958.392944,1337.918213  z"
   id="path86" />
<path
   fill="#2A98BB"
   opacity="1.000000"
   stroke="none"
   d=" M1381.266357,1337.825806   C1381.125488,1337.579956 1381.305786,1337.338745 1381.794922,1337.081543   C1381.957275,1337.330933 1381.785278,1337.585938 1381.266357,1337.825806  z"
   id="path87" />







<path
   fill="#118EB4"
   opacity="1.000000"
   stroke="none"
   d=" M1213.588135,942.175781   C1209.346436,939.673340 1205.177124,936.802368 1200.876465,933.626953   C1206.488892,933.960876 1209.880615,938.179382 1213.588135,942.175781  z"
   id="path95" />
<path
   fill="#118EB4"
   opacity="1.000000"
   stroke="none"
   d=" M1216.929810,944.731812   C1215.859619,944.470154 1214.776733,943.832581 1213.602783,942.893372   C1214.646973,943.179810 1215.781982,943.767883 1216.929810,944.731812  z"
   id="path96" />
<path
   fill="#118EB4"
   opacity="1.000000"
   stroke="none"
   d=" M1219.818115,946.908691   C1218.902222,946.739868 1218.020386,946.195251 1217.021362,945.356201   C1217.886841,945.552246 1218.869629,946.042603 1219.818115,946.908691  z"
   id="path97" />
<path
   fill="#118EB4"
   opacity="1.000000"
   stroke="none"
   d=" M1200.760010,933.074219   C1200.686646,933.355896 1200.466553,933.457336 1200.354126,933.415588   C1200.358643,932.900879 1200.475586,932.427979 1200.592529,931.955078   C1200.672852,932.234253 1200.753174,932.513428 1200.760010,933.074219  z"
   id="path98" />
<path
   fill="#118EB4"
   opacity="1.000000"
   stroke="none"
   d=" M1220.844482,947.876404   C1220.606812,947.996094 1220.266968,947.849487 1219.829590,947.434509   C1220.068848,947.314148 1220.405518,947.462097 1220.844482,947.876404  z"
   id="path99" />
</svg>
